<mxfile host="app.diagrams.net" modified="2020-12-22T04:43:55.639Z" agent="5.0 (Windows NT 10.0; Win64; x64) AppleWebKit/537.36 (KHTML, like Gecko) Chrome/87.0.4280.88 Safari/537.36" etag="XIjXARDFNHkx1MSeSvp5" version="14.1.1" type="github" pages="2">
  <diagram id="tgm7KsQhkigpg_ZTudMD" name="Page-1">
    <mxGraphModel dx="541" dy="814" grid="1" gridSize="10" guides="1" tooltips="1" connect="1" arrows="1" fold="1" page="1" pageScale="1" pageWidth="850" pageHeight="1100" math="0" shadow="0">
      <root>
        <mxCell id="0" />
        <mxCell id="1" parent="0" />
        <mxCell id="7LYPBwfiOugZ7L285YhC-4" style="edgeStyle=orthogonalEdgeStyle;rounded=0;orthogonalLoop=1;jettySize=auto;html=1;" edge="1" parent="1" source="7LYPBwfiOugZ7L285YhC-1" target="7LYPBwfiOugZ7L285YhC-2">
          <mxGeometry relative="1" as="geometry" />
        </mxCell>
        <mxCell id="7LYPBwfiOugZ7L285YhC-1" value="Start" style="ellipse;whiteSpace=wrap;html=1;aspect=fixed;fillColor=#647687;strokeColor=#314354;fontColor=#ffffff;" vertex="1" parent="1">
          <mxGeometry x="40" y="40" width="50" height="50" as="geometry" />
        </mxCell>
        <mxCell id="7LYPBwfiOugZ7L285YhC-5" style="edgeStyle=orthogonalEdgeStyle;rounded=0;orthogonalLoop=1;jettySize=auto;html=1;" edge="1" parent="1" source="7LYPBwfiOugZ7L285YhC-2">
          <mxGeometry relative="1" as="geometry">
            <mxPoint x="285" y="130" as="targetPoint" />
          </mxGeometry>
        </mxCell>
        <mxCell id="7LYPBwfiOugZ7L285YhC-2" value="Login" style="rounded=1;whiteSpace=wrap;html=1;" vertex="1" parent="1">
          <mxGeometry x="230" y="45" width="110" height="40" as="geometry" />
        </mxCell>
        <mxCell id="7LYPBwfiOugZ7L285YhC-7" style="edgeStyle=orthogonalEdgeStyle;rounded=0;orthogonalLoop=1;jettySize=auto;html=1;" edge="1" parent="1" source="7LYPBwfiOugZ7L285YhC-6">
          <mxGeometry relative="1" as="geometry">
            <mxPoint x="285" y="220" as="targetPoint" />
          </mxGeometry>
        </mxCell>
        <mxCell id="7LYPBwfiOugZ7L285YhC-6" value="Check user level and Permissions" style="rounded=1;whiteSpace=wrap;html=1;" vertex="1" parent="1">
          <mxGeometry x="225" y="130" width="120" height="40" as="geometry" />
        </mxCell>
        <mxCell id="7LYPBwfiOugZ7L285YhC-8" value="" style="strokeWidth=2;html=1;shape=mxgraph.flowchart.annotation_2;align=left;labelPosition=right;pointerEvents=1;rotation=90;" vertex="1" parent="1">
          <mxGeometry x="260" y="200" width="50" height="100" as="geometry" />
        </mxCell>
        <mxCell id="7LYPBwfiOugZ7L285YhC-9" value="" style="strokeWidth=2;html=1;shape=mxgraph.flowchart.annotation_1;align=left;pointerEvents=1;rotation=90;" vertex="1" parent="1">
          <mxGeometry x="355" y="230" width="60" height="100" as="geometry" />
        </mxCell>
        <mxCell id="7LYPBwfiOugZ7L285YhC-10" value="" style="strokeWidth=2;html=1;shape=mxgraph.flowchart.annotation_1;align=left;pointerEvents=1;rotation=90;" vertex="1" parent="1">
          <mxGeometry x="155" y="230" width="60" height="100" as="geometry" />
        </mxCell>
        <mxCell id="7LYPBwfiOugZ7L285YhC-11" value="" style="strokeWidth=2;html=1;shape=mxgraph.flowchart.annotation_1;align=left;pointerEvents=1;rotation=90;" vertex="1" parent="1">
          <mxGeometry x="455.79" y="228.6" width="60" height="102.82" as="geometry" />
        </mxCell>
        <mxCell id="7LYPBwfiOugZ7L285YhC-17" style="edgeStyle=orthogonalEdgeStyle;rounded=0;orthogonalLoop=1;jettySize=auto;html=1;entryX=0.5;entryY=0;entryDx=0;entryDy=0;" edge="1" parent="1" source="7LYPBwfiOugZ7L285YhC-12" target="7LYPBwfiOugZ7L285YhC-23">
          <mxGeometry relative="1" as="geometry">
            <mxPoint x="135" y="450" as="targetPoint" />
          </mxGeometry>
        </mxCell>
        <mxCell id="7LYPBwfiOugZ7L285YhC-12" value="Check Permission" style="strokeWidth=2;html=1;shape=mxgraph.flowchart.decision;whiteSpace=wrap;" vertex="1" parent="1">
          <mxGeometry x="90" y="300" width="90" height="100" as="geometry" />
        </mxCell>
        <mxCell id="7LYPBwfiOugZ7L285YhC-20" style="edgeStyle=orthogonalEdgeStyle;rounded=0;orthogonalLoop=1;jettySize=auto;html=1;entryX=0.5;entryY=0;entryDx=0;entryDy=0;" edge="1" parent="1" source="7LYPBwfiOugZ7L285YhC-13" target="7LYPBwfiOugZ7L285YhC-26">
          <mxGeometry relative="1" as="geometry">
            <mxPoint x="435" y="450" as="targetPoint" />
          </mxGeometry>
        </mxCell>
        <mxCell id="7LYPBwfiOugZ7L285YhC-13" value="&lt;span&gt;Check Permission&lt;/span&gt;" style="strokeWidth=2;html=1;shape=mxgraph.flowchart.decision;whiteSpace=wrap;" vertex="1" parent="1">
          <mxGeometry x="390" y="310" width="90" height="100" as="geometry" />
        </mxCell>
        <mxCell id="7LYPBwfiOugZ7L285YhC-19" style="edgeStyle=orthogonalEdgeStyle;rounded=0;orthogonalLoop=1;jettySize=auto;html=1;entryX=0.5;entryY=0;entryDx=0;entryDy=0;" edge="1" parent="1" source="7LYPBwfiOugZ7L285YhC-14" target="7LYPBwfiOugZ7L285YhC-25">
          <mxGeometry relative="1" as="geometry">
            <mxPoint x="335" y="450" as="targetPoint" />
          </mxGeometry>
        </mxCell>
        <mxCell id="7LYPBwfiOugZ7L285YhC-14" value="&lt;span&gt;Check Permission&lt;/span&gt;" style="strokeWidth=2;html=1;shape=mxgraph.flowchart.decision;whiteSpace=wrap;" vertex="1" parent="1">
          <mxGeometry x="290" y="310" width="90" height="100" as="geometry" />
        </mxCell>
        <mxCell id="7LYPBwfiOugZ7L285YhC-18" style="edgeStyle=orthogonalEdgeStyle;rounded=0;orthogonalLoop=1;jettySize=auto;html=1;exitX=0.5;exitY=1;exitDx=0;exitDy=0;exitPerimeter=0;entryX=0.5;entryY=0;entryDx=0;entryDy=0;" edge="1" parent="1" source="7LYPBwfiOugZ7L285YhC-15" target="7LYPBwfiOugZ7L285YhC-24">
          <mxGeometry relative="1" as="geometry">
            <mxPoint x="235" y="450" as="targetPoint" />
          </mxGeometry>
        </mxCell>
        <mxCell id="7LYPBwfiOugZ7L285YhC-15" value="&lt;span&gt;Check Permission&lt;/span&gt;" style="strokeWidth=2;html=1;shape=mxgraph.flowchart.decision;whiteSpace=wrap;" vertex="1" parent="1">
          <mxGeometry x="190" y="310" width="90" height="100" as="geometry" />
        </mxCell>
        <mxCell id="7LYPBwfiOugZ7L285YhC-21" style="edgeStyle=orthogonalEdgeStyle;rounded=0;orthogonalLoop=1;jettySize=auto;html=1;entryX=0.5;entryY=0;entryDx=0;entryDy=0;entryPerimeter=0;" edge="1" parent="1" source="7LYPBwfiOugZ7L285YhC-16" target="7LYPBwfiOugZ7L285YhC-27">
          <mxGeometry relative="1" as="geometry">
            <mxPoint x="535" y="450" as="targetPoint" />
          </mxGeometry>
        </mxCell>
        <mxCell id="7LYPBwfiOugZ7L285YhC-16" value="&lt;span&gt;Check Permission&lt;/span&gt;" style="strokeWidth=2;html=1;shape=mxgraph.flowchart.decision;whiteSpace=wrap;" vertex="1" parent="1">
          <mxGeometry x="490" y="310" width="90" height="100" as="geometry" />
        </mxCell>
        <mxCell id="7LYPBwfiOugZ7L285YhC-42" style="edgeStyle=orthogonalEdgeStyle;rounded=0;orthogonalLoop=1;jettySize=auto;html=1;exitX=0.5;exitY=1;exitDx=0;exitDy=0;entryX=1;entryY=0;entryDx=0;entryDy=0;entryPerimeter=0;" edge="1" parent="1" source="7LYPBwfiOugZ7L285YhC-23" target="7LYPBwfiOugZ7L285YhC-36">
          <mxGeometry relative="1" as="geometry" />
        </mxCell>
        <mxCell id="7LYPBwfiOugZ7L285YhC-23" value="Check user level and Permissions" style="rounded=1;whiteSpace=wrap;html=1;fillColor=#e51400;strokeColor=#B20000;fontColor=#ffffff;" vertex="1" parent="1">
          <mxGeometry x="75" y="470" width="120" height="40" as="geometry" />
        </mxCell>
        <mxCell id="7LYPBwfiOugZ7L285YhC-24" value="Check user level and Permissions" style="rounded=1;whiteSpace=wrap;html=1;fillColor=#6d8764;strokeColor=#3A5431;fontColor=#ffffff;" vertex="1" parent="1">
          <mxGeometry x="175" y="530" width="120" height="40" as="geometry" />
        </mxCell>
        <mxCell id="7LYPBwfiOugZ7L285YhC-41" style="edgeStyle=orthogonalEdgeStyle;rounded=0;orthogonalLoop=1;jettySize=auto;html=1;entryX=1;entryY=1;entryDx=0;entryDy=0;entryPerimeter=0;" edge="1" parent="1" source="7LYPBwfiOugZ7L285YhC-25" target="7LYPBwfiOugZ7L285YhC-38">
          <mxGeometry relative="1" as="geometry" />
        </mxCell>
        <mxCell id="7LYPBwfiOugZ7L285YhC-25" value="Check user level and Permissions" style="rounded=1;whiteSpace=wrap;html=1;fillColor=#fa6800;strokeColor=#C73500;fontColor=#ffffff;" vertex="1" parent="1">
          <mxGeometry x="275" y="470" width="120" height="40" as="geometry" />
        </mxCell>
        <mxCell id="7LYPBwfiOugZ7L285YhC-26" value="Check user level and Permissions" style="rounded=1;whiteSpace=wrap;html=1;fillColor=#76608a;strokeColor=#432D57;fontColor=#ffffff;" vertex="1" parent="1">
          <mxGeometry x="375" y="530" width="120" height="40" as="geometry" />
        </mxCell>
        <mxCell id="7LYPBwfiOugZ7L285YhC-40" style="edgeStyle=orthogonalEdgeStyle;rounded=0;orthogonalLoop=1;jettySize=auto;html=1;exitX=0.5;exitY=1;exitDx=0;exitDy=0;entryX=1;entryY=1;entryDx=0;entryDy=0;entryPerimeter=0;" edge="1" parent="1" source="7LYPBwfiOugZ7L285YhC-27" target="7LYPBwfiOugZ7L285YhC-37">
          <mxGeometry relative="1" as="geometry" />
        </mxCell>
        <mxCell id="7LYPBwfiOugZ7L285YhC-27" value="Check user level and Permissions" style="rounded=1;whiteSpace=wrap;html=1;fillColor=#f0a30a;strokeColor=#BD7000;fontColor=#ffffff;" vertex="1" parent="1">
          <mxGeometry x="475" y="460" width="120" height="40" as="geometry" />
        </mxCell>
        <mxCell id="7LYPBwfiOugZ7L285YhC-44" style="edgeStyle=orthogonalEdgeStyle;rounded=0;orthogonalLoop=1;jettySize=auto;html=1;" edge="1" parent="1" source="7LYPBwfiOugZ7L285YhC-29">
          <mxGeometry relative="1" as="geometry">
            <mxPoint x="490" y="710" as="targetPoint" />
          </mxGeometry>
        </mxCell>
        <mxCell id="7LYPBwfiOugZ7L285YhC-29" value="Logout from the system" style="rounded=1;whiteSpace=wrap;html=1;" vertex="1" parent="1">
          <mxGeometry x="275" y="690" width="120" height="40" as="geometry" />
        </mxCell>
        <mxCell id="7LYPBwfiOugZ7L285YhC-43" style="edgeStyle=orthogonalEdgeStyle;rounded=0;orthogonalLoop=1;jettySize=auto;html=1;exitX=0;exitY=0;exitDx=0;exitDy=0;exitPerimeter=0;entryX=0.5;entryY=0;entryDx=0;entryDy=0;" edge="1" parent="1" source="7LYPBwfiOugZ7L285YhC-35" target="7LYPBwfiOugZ7L285YhC-29">
          <mxGeometry relative="1" as="geometry" />
        </mxCell>
        <mxCell id="7LYPBwfiOugZ7L285YhC-35" value="" style="strokeWidth=2;html=1;shape=mxgraph.flowchart.annotation_1;align=left;pointerEvents=1;rotation=90;direction=west;" vertex="1" parent="1">
          <mxGeometry x="350" y="550" width="60" height="100" as="geometry" />
        </mxCell>
        <mxCell id="7LYPBwfiOugZ7L285YhC-36" value="" style="strokeWidth=2;html=1;shape=mxgraph.flowchart.annotation_1;align=left;pointerEvents=1;rotation=90;direction=west;" vertex="1" parent="1">
          <mxGeometry x="150" y="550" width="60" height="100" as="geometry" />
        </mxCell>
        <mxCell id="7LYPBwfiOugZ7L285YhC-37" value="" style="strokeWidth=2;html=1;shape=mxgraph.flowchart.annotation_1;align=left;pointerEvents=1;rotation=90;direction=west;" vertex="1" parent="1">
          <mxGeometry x="450.78999999999996" y="548.6" width="60" height="102.82" as="geometry" />
        </mxCell>
        <mxCell id="7LYPBwfiOugZ7L285YhC-38" value="" style="strokeWidth=2;html=1;shape=mxgraph.flowchart.annotation_1;align=left;pointerEvents=1;rotation=90;direction=west;" vertex="1" parent="1">
          <mxGeometry x="250" y="548.6" width="60" height="100" as="geometry" />
        </mxCell>
        <mxCell id="7LYPBwfiOugZ7L285YhC-45" value="End" style="ellipse;whiteSpace=wrap;html=1;aspect=fixed;fillColor=#647687;strokeColor=#314354;fontColor=#ffffff;" vertex="1" parent="1">
          <mxGeometry x="490" y="685" width="50" height="50" as="geometry" />
        </mxCell>
      </root>
    </mxGraphModel>
  </diagram>
  <diagram id="8OgpaSvIHtAYyWyGD7ZZ" name="Page-2">
    <mxGraphModel dx="2370" dy="1177" grid="1" gridSize="10" guides="1" tooltips="1" connect="1" arrows="1" fold="1" page="1" pageScale="1" pageWidth="850" pageHeight="1100" math="0" shadow="0">
      <root>
        <mxCell id="6fmB8L7WwnYqNYykOCAO-0" />
        <mxCell id="6fmB8L7WwnYqNYykOCAO-1" parent="6fmB8L7WwnYqNYykOCAO-0" />
        <mxCell id="6fmB8L7WwnYqNYykOCAO-9" style="edgeStyle=orthogonalEdgeStyle;rounded=0;orthogonalLoop=1;jettySize=auto;html=1;entryX=0;entryY=0.5;entryDx=0;entryDy=0;" edge="1" parent="6fmB8L7WwnYqNYykOCAO-1" source="6fmB8L7WwnYqNYykOCAO-2" target="6fmB8L7WwnYqNYykOCAO-3">
          <mxGeometry relative="1" as="geometry">
            <Array as="points">
              <mxPoint x="120" y="140" />
              <mxPoint x="120" y="50" />
            </Array>
          </mxGeometry>
        </mxCell>
        <mxCell id="6fmB8L7WwnYqNYykOCAO-10" style="edgeStyle=orthogonalEdgeStyle;rounded=0;orthogonalLoop=1;jettySize=auto;html=1;entryX=0;entryY=0.5;entryDx=0;entryDy=0;" edge="1" parent="6fmB8L7WwnYqNYykOCAO-1" source="6fmB8L7WwnYqNYykOCAO-2" target="6fmB8L7WwnYqNYykOCAO-4">
          <mxGeometry relative="1" as="geometry" />
        </mxCell>
        <mxCell id="6fmB8L7WwnYqNYykOCAO-11" style="edgeStyle=orthogonalEdgeStyle;rounded=0;orthogonalLoop=1;jettySize=auto;html=1;entryX=0;entryY=0.5;entryDx=0;entryDy=0;" edge="1" parent="6fmB8L7WwnYqNYykOCAO-1" source="6fmB8L7WwnYqNYykOCAO-2" target="6fmB8L7WwnYqNYykOCAO-5">
          <mxGeometry relative="1" as="geometry" />
        </mxCell>
        <mxCell id="6fmB8L7WwnYqNYykOCAO-2" value="Reader" style="shape=umlActor;verticalLabelPosition=bottom;verticalAlign=top;html=1;outlineConnect=0;" vertex="1" parent="6fmB8L7WwnYqNYykOCAO-1">
          <mxGeometry x="50" y="130" width="30" height="60" as="geometry" />
        </mxCell>
        <mxCell id="6fmB8L7WwnYqNYykOCAO-3" value="Book scheduled" style="ellipse;whiteSpace=wrap;html=1;" vertex="1" parent="6fmB8L7WwnYqNYykOCAO-1">
          <mxGeometry x="160" y="10" width="120" height="80" as="geometry" />
        </mxCell>
        <mxCell id="6fmB8L7WwnYqNYykOCAO-4" value="Renew Book" style="ellipse;whiteSpace=wrap;html=1;" vertex="1" parent="6fmB8L7WwnYqNYykOCAO-1">
          <mxGeometry x="160" y="130" width="120" height="80" as="geometry" />
        </mxCell>
        <mxCell id="6fmB8L7WwnYqNYykOCAO-28" style="edgeStyle=orthogonalEdgeStyle;rounded=0;orthogonalLoop=1;jettySize=auto;html=1;entryX=0;entryY=0.5;entryDx=0;entryDy=0;" edge="1" parent="6fmB8L7WwnYqNYykOCAO-1" source="6fmB8L7WwnYqNYykOCAO-5" target="6fmB8L7WwnYqNYykOCAO-26">
          <mxGeometry relative="1" as="geometry" />
        </mxCell>
        <mxCell id="6fmB8L7WwnYqNYykOCAO-29" style="edgeStyle=orthogonalEdgeStyle;rounded=0;orthogonalLoop=1;jettySize=auto;html=1;entryX=0;entryY=0.5;entryDx=0;entryDy=0;" edge="1" parent="6fmB8L7WwnYqNYykOCAO-1" source="6fmB8L7WwnYqNYykOCAO-5" target="6fmB8L7WwnYqNYykOCAO-25">
          <mxGeometry relative="1" as="geometry" />
        </mxCell>
        <mxCell id="6fmB8L7WwnYqNYykOCAO-5" value="Book information" style="ellipse;whiteSpace=wrap;html=1;" vertex="1" parent="6fmB8L7WwnYqNYykOCAO-1">
          <mxGeometry x="160" y="250" width="120" height="80" as="geometry" />
        </mxCell>
        <mxCell id="6fmB8L7WwnYqNYykOCAO-12" style="edgeStyle=orthogonalEdgeStyle;rounded=0;orthogonalLoop=1;jettySize=auto;html=1;entryX=0;entryY=0.5;entryDx=0;entryDy=0;" edge="1" parent="6fmB8L7WwnYqNYykOCAO-1" source="6fmB8L7WwnYqNYykOCAO-6" target="6fmB8L7WwnYqNYykOCAO-7">
          <mxGeometry relative="1" as="geometry" />
        </mxCell>
        <mxCell id="6fmB8L7WwnYqNYykOCAO-13" style="edgeStyle=orthogonalEdgeStyle;rounded=0;orthogonalLoop=1;jettySize=auto;html=1;entryX=0;entryY=0.5;entryDx=0;entryDy=0;" edge="1" parent="6fmB8L7WwnYqNYykOCAO-1" source="6fmB8L7WwnYqNYykOCAO-6" target="6fmB8L7WwnYqNYykOCAO-8">
          <mxGeometry relative="1" as="geometry" />
        </mxCell>
        <mxCell id="6fmB8L7WwnYqNYykOCAO-22" style="edgeStyle=orthogonalEdgeStyle;rounded=0;orthogonalLoop=1;jettySize=auto;html=1;entryX=0.5;entryY=1;entryDx=0;entryDy=0;" edge="1" parent="6fmB8L7WwnYqNYykOCAO-1" source="6fmB8L7WwnYqNYykOCAO-6" target="6fmB8L7WwnYqNYykOCAO-5">
          <mxGeometry relative="1" as="geometry">
            <Array as="points">
              <mxPoint x="65" y="380" />
              <mxPoint x="220" y="380" />
            </Array>
          </mxGeometry>
        </mxCell>
        <mxCell id="6fmB8L7WwnYqNYykOCAO-6" value="Book information&lt;br&gt;&amp;nbsp;administrator" style="shape=umlActor;verticalLabelPosition=bottom;verticalAlign=top;html=1;outlineConnect=0;" vertex="1" parent="6fmB8L7WwnYqNYykOCAO-1">
          <mxGeometry x="50" y="490" width="30" height="60" as="geometry" />
        </mxCell>
        <mxCell id="6fmB8L7WwnYqNYykOCAO-7" value="Reader information management" style="ellipse;whiteSpace=wrap;html=1;" vertex="1" parent="6fmB8L7WwnYqNYykOCAO-1">
          <mxGeometry x="160" y="410" width="120" height="80" as="geometry" />
        </mxCell>
        <mxCell id="6fmB8L7WwnYqNYykOCAO-8" value="book information management" style="ellipse;whiteSpace=wrap;html=1;" vertex="1" parent="6fmB8L7WwnYqNYykOCAO-1">
          <mxGeometry x="160" y="550" width="120" height="80" as="geometry" />
        </mxCell>
        <mxCell id="6fmB8L7WwnYqNYykOCAO-19" style="edgeStyle=orthogonalEdgeStyle;rounded=0;orthogonalLoop=1;jettySize=auto;html=1;entryX=1;entryY=0.5;entryDx=0;entryDy=0;" edge="1" parent="6fmB8L7WwnYqNYykOCAO-1" source="6fmB8L7WwnYqNYykOCAO-18" target="6fmB8L7WwnYqNYykOCAO-5">
          <mxGeometry relative="1" as="geometry" />
        </mxCell>
        <mxCell id="6fmB8L7WwnYqNYykOCAO-21" style="edgeStyle=orthogonalEdgeStyle;rounded=0;orthogonalLoop=1;jettySize=auto;html=1;entryX=1;entryY=0.5;entryDx=0;entryDy=0;" edge="1" parent="6fmB8L7WwnYqNYykOCAO-1" source="6fmB8L7WwnYqNYykOCAO-18" target="6fmB8L7WwnYqNYykOCAO-20">
          <mxGeometry relative="1" as="geometry" />
        </mxCell>
        <mxCell id="6fmB8L7WwnYqNYykOCAO-18" value="System Administration" style="shape=umlActor;verticalLabelPosition=bottom;verticalAlign=top;html=1;outlineConnect=0;" vertex="1" parent="6fmB8L7WwnYqNYykOCAO-1">
          <mxGeometry x="590" y="130" width="30" height="60" as="geometry" />
        </mxCell>
        <mxCell id="6fmB8L7WwnYqNYykOCAO-20" value="System Maintanence" style="ellipse;whiteSpace=wrap;html=1;" vertex="1" parent="6fmB8L7WwnYqNYykOCAO-1">
          <mxGeometry x="440" y="10" width="120" height="80" as="geometry" />
        </mxCell>
        <mxCell id="6fmB8L7WwnYqNYykOCAO-24" value="Reader information management" style="ellipse;whiteSpace=wrap;html=1;" vertex="1" parent="6fmB8L7WwnYqNYykOCAO-1">
          <mxGeometry x="560" y="410" width="120" height="80" as="geometry" />
        </mxCell>
        <mxCell id="6fmB8L7WwnYqNYykOCAO-32" style="edgeStyle=orthogonalEdgeStyle;rounded=0;orthogonalLoop=1;jettySize=auto;html=1;entryX=0;entryY=1;entryDx=0;entryDy=0;" edge="1" parent="6fmB8L7WwnYqNYykOCAO-1" source="6fmB8L7WwnYqNYykOCAO-25" target="6fmB8L7WwnYqNYykOCAO-24">
          <mxGeometry relative="1" as="geometry" />
        </mxCell>
        <mxCell id="6fmB8L7WwnYqNYykOCAO-25" value="Reader information management" style="ellipse;whiteSpace=wrap;html=1;" vertex="1" parent="6fmB8L7WwnYqNYykOCAO-1">
          <mxGeometry x="365" y="470" width="120" height="80" as="geometry" />
        </mxCell>
        <mxCell id="6fmB8L7WwnYqNYykOCAO-30" style="edgeStyle=orthogonalEdgeStyle;rounded=0;orthogonalLoop=1;jettySize=auto;html=1;entryX=0;entryY=0.5;entryDx=0;entryDy=0;" edge="1" parent="6fmB8L7WwnYqNYykOCAO-1" source="6fmB8L7WwnYqNYykOCAO-26" target="6fmB8L7WwnYqNYykOCAO-24">
          <mxGeometry relative="1" as="geometry" />
        </mxCell>
        <mxCell id="6fmB8L7WwnYqNYykOCAO-26" value="Reader information management" style="ellipse;whiteSpace=wrap;html=1;" vertex="1" parent="6fmB8L7WwnYqNYykOCAO-1">
          <mxGeometry x="365" y="330" width="120" height="80" as="geometry" />
        </mxCell>
        <mxCell id="6fmB8L7WwnYqNYykOCAO-34" style="edgeStyle=orthogonalEdgeStyle;rounded=0;orthogonalLoop=1;jettySize=auto;html=1;entryX=0.5;entryY=1;entryDx=0;entryDy=0;" edge="1" parent="6fmB8L7WwnYqNYykOCAO-1" source="6fmB8L7WwnYqNYykOCAO-27" target="6fmB8L7WwnYqNYykOCAO-25">
          <mxGeometry relative="1" as="geometry" />
        </mxCell>
        <mxCell id="6fmB8L7WwnYqNYykOCAO-27" value="Reader information management" style="ellipse;whiteSpace=wrap;html=1;" vertex="1" parent="6fmB8L7WwnYqNYykOCAO-1">
          <mxGeometry x="560" y="550" width="120" height="80" as="geometry" />
        </mxCell>
      </root>
    </mxGraphModel>
  </diagram>
</mxfile>
